<?xml version="1.0" encoding="UTF-8"?>
<svg id="Capa_1" xmlns="http://www.w3.org/2000/svg" version="1.1" viewBox="0 0 1000 766.11">
  <!-- Generator: Adobe Illustrator 30.1.0, SVG Export Plug-In . SVG Version: 2.1.1 Build 136)  -->
  <defs>
    <style>
      .st0 {
        fill: #fff;
      }
    </style>
  </defs>
  <path class="st0" d="M992.39,357.55L802.16,28.08C792.01,10.5,773.83,0,753.53,0h0c-20.3,0-38.48,10.5-48.64,28.08l-80.39,139.25c44.76,50.31,71.97,116.59,71.97,189.22,0,29.69-4.55,58.32-12.98,85.24h260.27c20.3,0,38.48-10.5,48.63-28.08,10.15-17.58,10.15-38.58,0-56.16ZM773.56,367.89c-5.42,5.42-12.06,8.13-19.92,8.13s-14.5-2.71-19.92-8.13c-5.42-5.42-8.13-12.06-8.13-19.92s2.71-14.5,8.13-19.92c5.42-5.42,12.06-8.13,19.92-8.13s14.5,2.71,19.92,8.13c5.42,5.42,8.13,12.06,8.13,19.92s-2.71,14.51-8.13,19.92ZM788.54,158.59l-15.45,129.17c-1.18,9.91-9.59,17.37-19.57,17.37s-18.4-7.48-19.57-17.4l-15.24-129.19c-2.47-20.91,13.87-39.28,34.92-39.28s37.41,18.41,34.91,39.33Z"/>
  <g>
    <path class="st0" d="M259.41,343.53c-.79,0-1.59-.06-2.4-.19-8.13-1.32-13.65-8.97-12.34-17.1,6.32-39.03,26.4-74.79,56.55-100.69,30.48-26.18,69.43-40.6,109.66-40.6,8.24,0,14.91,6.68,14.91,14.91s-6.68,14.91-14.91,14.91c-33.11,0-65.15,11.86-90.23,33.4-24.82,21.32-41.35,50.73-46.54,82.83-1.19,7.32-7.52,12.53-14.7,12.53Z"/>
    <path class="st0" d="M634.85,260.61c-12.24-28.95-29.77-54.95-52.08-77.26-22.32-22.32-48.32-39.84-77.26-52.08-29.99-12.69-61.82-19.12-94.63-19.12s-64.64,6.44-94.63,19.12c-28.95,12.24-54.94,29.76-77.26,52.08-22.31,22.31-39.84,48.31-52.08,77.26-12.69,29.99-19.11,61.82-19.11,94.63s6.42,64.64,19.11,94.62c7.83,18.54,17.85,35.86,29.89,51.78l.06.07c1.2,1.54,20.9,26.36,47.62,47.61,15.92,12.04,33.23,22.05,51.77,29.89,29.99,12.68,61.82,19.11,94.63,19.11s64.64-6.44,94.63-19.11c28.94-12.25,54.94-29.77,77.26-52.08,22.31-22.32,39.84-48.32,52.08-77.27,12.69-29.97,19.11-61.82,19.11-94.62s-6.42-64.64-19.11-94.63ZM589.93,430.85c-9.79,23.14-23.79,43.92-41.65,61.77-17.85,17.85-38.64,31.87-61.77,41.65-23.93,10.13-49.37,15.26-75.62,15.26s-51.69-5.13-75.63-15.26c-23.13-9.79-43.91-23.8-61.76-41.65-17.86-17.85-31.88-38.64-41.66-61.77-10.12-23.94-15.26-49.38-15.26-75.62s5.14-51.69,15.26-75.63c9.79-23.14,23.8-43.92,41.66-61.77,17.85-17.85,38.64-31.87,61.76-41.65,23.94-10.12,49.38-15.26,75.63-15.26s51.69,5.14,75.62,15.26c23.14,9.79,43.92,23.8,61.77,41.65,17.86,17.85,31.87,38.64,41.65,61.77,10.13,23.94,15.27,49.38,15.27,75.63s-5.14,51.68-15.27,75.62Z"/>
    <path class="st0" d="M246.36,567.43l-188.81,188.81c-13.17,13.17-34.52,13.17-47.69,0-13.16-13.17-13.16-34.52,0-47.67l188.82-188.81.06.07c1.2,1.54,20.9,26.36,47.62,47.61Z"/>
  </g>
</svg>